<svg xmlns="http://www.w3.org/2000/svg" viewBox="0 0 64 64" fill="none">
  <rect width="64" height="64" rx="16" fill="#18181B"/>
  <path d="M18 18h28a2 2 0 0 1 2 2v24a2 2 0 0 1-2 2H18a2 2 0 0 1-2-2V20a2 2 0 0 1 2-2z" fill="#fff" fill-opacity="0.08"/>
  <path d="M20 22h24v20H20z" stroke="#38bdf8" stroke-width="2.5" stroke-linejoin="round"/>
  <path d="M24 26h16M24 32h16M24 38h8" stroke="#38bdf8" stroke-width="2" stroke-linecap="round"/>
  <path d="M20 22v20M44 22v20" stroke="#38bdf8" stroke-width="2"/>
  <circle cx="32" cy="54" r="2" fill="#38bdf8"/>
</svg> 